# xmcd
#
# Track frame offsets:
# 150
# 9352
# 25231
# 41333
# 59728
# 73597
# 90497
# 101674
# 129656
# 148778
# 166687
# 188449
# 212429
# 225886
# 247678
# 270377
# 286107
# 303261
# 317366
#
# Disc length: 4774 seconds
#
#
# Revision: 0
# Processed by: cddbd v1.5.1PL2 Copyright (c) Steve Scherf et al.
# Submitted via: FreeRIP 2.944 
#
DISCID=e712a413
DTITLE=Leningrad Cowboys - Live in Prowinzz
DYEAR=1900
DGENRE=
TTITLE0=Säkkijärven Polkka
TTITLE1=Back In The USSR
TTITLE2=Fat Bob Dollop
TTITLE3=Chasing The Light
TTITLE4=Katjusha
TTITLE5=The Way I Walk
TTITLE6=IIja Limanow - Sow
TTITLE7=Thru The Wire
TTITLE8=Sabre Dance (Instrumental)
TTITLE9=Elvis Show/Trouble
TTITLE10=Kasakka
TTITLE11=L.A. Women
TTITLE12=I m Ginna Roll
TTITLE13=Born To Be Wild
TTITLE14=Those Were The Days
TTITLE15=Tequila
TTITLE16=Proud Mary
TTITLE17=Sally Is Something Else
TTITLE18=These Boots (Single Edit)
EXTD=
EXTT0=
EXTT1=
EXTT2=
EXTT3=
EXTT4=
EXTT5=
EXTT6=
EXTT7=
EXTT8=
EXTT9=
EXTT10=
EXTT11=
EXTT12=
EXTT13=
EXTT14=
EXTT15=
EXTT16=
EXTT17=
EXTT18=
PLAYORDER=
